<svg width="920" height="560" viewBox="0 0 920 560" fill="none" xmlns="http://www.w3.org/2000/svg">
  <rect width="920" height="560" rx="28" fill="#000926"/>
  <rect x="32" y="32" width="856" height="496" rx="22" fill="#071437" stroke="#0F52BA" stroke-width="2"/>
  <rect x="60" y="70" width="170" height="420" rx="16" fill="#001542" stroke="#1E6EE8"/>
  <rect x="82" y="100" width="96" height="12" rx="6" fill="#4DD0E1"/>
  <rect x="82" y="142" width="118" height="10" rx="5" fill="#A6C5D7" opacity="0.85"/>
  <rect x="82" y="178" width="86" height="10" rx="5" fill="#A6C5D7" opacity="0.65"/>
  <rect x="82" y="214" width="110" height="10" rx="5" fill="#A6C5D7" opacity="0.65"/>
  <rect x="82" y="250" width="72" height="10" rx="5" fill="#A6C5D7" opacity="0.65"/>
  <rect x="82" y="410" width="112" height="38" rx="10" fill="#0F52BA"/>
  <text x="105" y="435" fill="white" font-family="Fira Code, monospace" font-size="16">RUN</text>

  <text x="270" y="108" fill="#D6E6F3" font-family="Fira Code, monospace" font-size="30" font-weight="700">ECI Pipeline</text>
  <text x="270" y="140" fill="#A6C5D7" font-family="Fira Code, monospace" font-size="16">DeltaRAG + Graph-RAG risk intelligence</text>

  <g opacity="0.98">
    <rect x="270" y="182" width="150" height="78" rx="14" fill="#001B4D" stroke="#4DD0E1"/>
    <text x="302" y="214" fill="#D6E6F3" font-family="Fira Code, monospace" font-size="14">10 Sources</text>
    <text x="294" y="238" fill="#A6C5D7" font-family="Fira Code, monospace" font-size="12">CVE + Android</text>

    <rect x="485" y="182" width="150" height="78" rx="14" fill="#001B4D" stroke="#4DD0E1"/>
    <text x="514" y="214" fill="#D6E6F3" font-family="Fira Code, monospace" font-size="14">Diff Engine</text>
    <text x="517" y="238" fill="#A6C5D7" font-family="Fira Code, monospace" font-size="12">change events</text>

    <rect x="700" y="182" width="150" height="78" rx="14" fill="#001B4D" stroke="#4DD0E1"/>
    <text x="734" y="214" fill="#D6E6F3" font-family="Fira Code, monospace" font-size="14">RAG Layer</text>
    <text x="725" y="238" fill="#A6C5D7" font-family="Fira Code, monospace" font-size="12">vectors + graph</text>
  </g>

  <path d="M420 221H485" stroke="#4DD0E1" stroke-width="3" stroke-linecap="round"/>
  <path d="M635 221H700" stroke="#4DD0E1" stroke-width="3" stroke-linecap="round"/>
  <path d="M475 213L488 221L475 229" stroke="#4DD0E1" stroke-width="3" stroke-linecap="round" stroke-linejoin="round"/>
  <path d="M690 213L703 221L690 229" stroke="#4DD0E1" stroke-width="3" stroke-linecap="round" stroke-linejoin="round"/>

  <rect x="270" y="306" width="250" height="154" rx="18" fill="#001542" stroke="#0F52BA"/>
  <text x="300" y="345" fill="#D6E6F3" font-family="Fira Code, monospace" font-size="18" font-weight="700">Sentinel Agent</text>
  <rect x="300" y="370" width="76" height="10" rx="5" fill="#4DD0E1"/>
  <rect x="300" y="396" width="178" height="10" rx="5" fill="#A6C5D7" opacity="0.7"/>
  <rect x="300" y="422" width="136" height="10" rx="5" fill="#A6C5D7" opacity="0.55"/>
  <circle cx="474" cy="340" r="22" fill="#0F52BA"/>
  <text x="466" y="347" fill="white" font-family="Fira Code, monospace" font-size="18">9</text>

  <rect x="600" y="306" width="250" height="154" rx="18" fill="#001542" stroke="#0F52BA"/>
  <text x="630" y="345" fill="#D6E6F3" font-family="Fira Code, monospace" font-size="18" font-weight="700">Action Ticket</text>
  <rect x="630" y="372" width="164" height="12" rx="6" fill="#4DD0E1"/>
  <rect x="630" y="402" width="190" height="10" rx="5" fill="#A6C5D7" opacity="0.7"/>
  <rect x="630" y="428" width="142" height="10" rx="5" fill="#A6C5D7" opacity="0.55"/>
  <rect x="783" y="326" width="42" height="24" rx="8" fill="#0F52BA"/>
  <text x="793" y="343" fill="white" font-family="Fira Code, monospace" font-size="12">P1</text>

  <path d="M520 383H600" stroke="#4DD0E1" stroke-width="3" stroke-linecap="round"/>
  <path d="M590 375L603 383L590 391" stroke="#4DD0E1" stroke-width="3" stroke-linecap="round" stroke-linejoin="round"/>
  <circle cx="675" cy="492" r="5" fill="#4DD0E1"/>
  <circle cx="704" cy="492" r="5" fill="#4DD0E1" opacity="0.7"/>
  <circle cx="733" cy="492" r="5" fill="#4DD0E1" opacity="0.4"/>
</svg>
